# xmcd CD database file
#
# Track frame offsets:
#	150
#	13297
#	28311
#	42169
#	57281
#	73190
#	86313
#	99488
#	113012
#	126278
#	140641
#	153656
#	167354
#	179711
#	195223
#	209252
#	223030
#	237801
#	250294
#	263107
#	275307
#	288914
#	302323
#	316961
#	332174
#
# Disc length: 4626 seconds
#
# Revision: 2
# Processed by: cddbd v1.5.2PL0 Copyright (c) Steve Scherf et al.
# Submitted via: CDex 1.51
#
DISCID=6a121019
DTITLE=When The Sun Goes Down 3 - That's Chicago's South Side - When The Sun Goes Down 3 - That's Chicago's South Side
DYEAR=2002
DGENRE=Blues
TTITLE0=That's Chicago's South Side - Sam Theard
TTITLE1=Peetie Wheatstraw Blues - Peetie Wheatstraw
TTITLE2=Devil's Island Gin Blues - Roosevelt Sykes
TTITLE3=Sail On, Little Girl, Sail On - Amos Easton
TTITLE4=Black Gal, What Makes Your Head So Hard? - Joe Pullum
TTITLE5=I Lost My Baby - Lil Johnson
TTITLE6=Keep Your Hands Off Her - Big Bill Broonzy
TTITLE7=When The Sun Goes Down - Leroy Carr
TTITLE8=Selling My Pork Chops - Memphis Minnie McCoy
TTITLE9=Every Day I Have The Blues - Pine Top Sparks
TTITLE10=Sweet Sixteen - Walter Davis
TTITLE11=Honky Tonk Train Blues - Meade Lux Lewis
TTITLE12=Trouble In Mind - Richard M. Jones
TTITLE13=He Roars Like A Lion - Merline Johnson
TTITLE14=Prowling Night Hawk - Robert Lee McCoy
TTITLE15=Good Morning School Girl - Sonny Boy Williamson
TTITLE16=You Got To Fix It - Speckled Red Trio
TTITLE17=Bucket's Got A Hole In It - Washboard Sam
TTITLE18=Bottle It Up And Go - Tommy McClennan
TTITLE19=Key To The Highway - Bill 'Jazz' Gillum
TTITLE20=Don't You Lie To Me - Tampa Red
TTITLE21=What Is That She Got - Johnny Temple
TTITLE22=Going Down Slow - St. Louis Jimmy Oden
TTITLE23=Hobo Blues - James 'Yank' Rachel
TTITLE24=He's A Jelly Roll Baker - Lonnie Johnson
EXTD=YEAR: 2002
EXTT0=
EXTT1=
EXTT2=
EXTT3=
EXTT4=
EXTT5=
EXTT6=
EXTT7=
EXTT8=
EXTT9=
EXTT10=
EXTT11=
EXTT12=
EXTT13=
EXTT14=
EXTT15=
EXTT16=
EXTT17=
EXTT18=
EXTT19=
EXTT20=
EXTT21=
EXTT22=
EXTT23=
EXTT24=
PLAYORDER=
